HIERARCHY
ROOT pelvis
{
	OFFSET 0.000000 0.000000 0.000000
	CHANNELS 6 Xposition Yposition Zposition Zrotation Xrotation Yrotation
	JOINT lfemur
	{
		OFFSET 11.446000 0.000000 0.000000
		CHANNELS 3 Zrotation Xrotation Yrotation
		JOINT ltibia
		{
			OFFSET 0.000000 -42.030400 0.000000
			CHANNELS 3 Zrotation Xrotation Yrotation
			JOINT lfoot
			{
				OFFSET 0.000000 -39.930200 0.000000
				CHANNELS 3 Zrotation Xrotation Yrotation
				JOINT ltoes
				{
					OFFSET 0.000000 0.000000 11.775800
					CHANNELS 3 Zrotation Xrotation Yrotation
					End Site
					{
					    OFFSET 0.000000 0.000000 5.000000
					}
				}
			}
		}
	}
	JOINT rfemur
	{
		OFFSET -11.446000 0.000000 0.000000
		CHANNELS 3 Zrotation Xrotation Yrotation
		JOINT rtibia
		{
			OFFSET 0.000000 -42.030400 0.000000
			CHANNELS 3 Zrotation Xrotation Yrotation
			JOINT rfoot
			{
				OFFSET 0.000000 -39.930200 0.000000
				CHANNELS 3 Zrotation Xrotation Yrotation
				JOINT rtoes
				{
					OFFSET 0.000000 0.000000 11.775800
					CHANNELS 3 Zrotation Xrotation Yrotation
					End Site
					{
					    OFFSET 0.000000 0.000000 5.000000
					}
				}
			}
		}
	}
	JOINT thorax
	{
		OFFSET 0.000000 11.255600 -5.000000
		CHANNELS 3 Zrotation Xrotation Yrotation
		JOINT head
		{
			OFFSET 0.000000 43.799300 0.000000
			CHANNELS 3 Zrotation Xrotation Yrotation
			End Site
			{
			    OFFSET 0.000000 5.000000 0.000000
			}
		}
		JOINT lclavicle
		{
			OFFSET 0.000000 39.863000 0.000000
			CHANNELS 3 Zrotation Xrotation Yrotation
			JOINT lhumerus
			{
				OFFSET 17.380600 4.958300 0.000000
				CHANNELS 3 Zrotation Xrotation Yrotation
				JOINT lradius
				{
					OFFSET 0.000000 -27.561300 0.000000
					CHANNELS 3 Zrotation Xrotation Yrotation
					JOINT lhand
					{
						OFFSET 0.000000 -26.933000 0.000000
						CHANNELS 3 Zrotation Xrotation Yrotation
						End Site
						{
						    OFFSET 0.000000 -5.000000 0.000000
						}
					}
				}
			}
		}
		JOINT rclavicle
		{
			OFFSET 0.000000 39.863000 0.000000
			CHANNELS 3 Zrotation Xrotation Yrotation
			JOINT rhumerus
			{
				OFFSET -17.380600 4.958300 0.000000
				CHANNELS 3 Zrotation Xrotation Yrotation
				JOINT rradius
				{
					OFFSET 0.000000 -27.561300 0.000000
					CHANNELS 3 Zrotation Xrotation Yrotation
					JOINT rhand
					{
						OFFSET 0.000000 -26.933000 0.000000
						CHANNELS 3 Zrotation Xrotation Yrotation
						End Site
						{
						    OFFSET 0.000000 -5.000000 0.000000
						}
					}
				}
			}
		}
	}
}
MOTION
Frames:	20
Frame Time:	0.0333333
62.901300 87.353600 5.267100 -2.706318 -0.081208 -89.227280 -4.963255 -1.184107 -7.862387 -0.000000 20.540430 -0.000000 -0.000000 -0.529911 7.204329 0.000000 -1.387196 -0.000000 1.631849 -1.136738 -1.711019 -0.000000 16.147851 0.000000 0.000000 2.367216 -2.405116 -0.000000 -29.541312 0.000000 -2.499454 1.235312 -0.399563 16.095555 24.068264 -2.276496 4.704977 -0.000000 4.036481 82.901191 2.312750 64.430725 -0.000001 -13.313498 -60.463367 11.468222 1.987059 0.000000 -6.394637 0.000000 -1.322074 -76.988922 12.298105 -63.904553 -0.000001 -20.161303 42.506276 -8.932429 -0.362121 -0.000000 
62.889400 87.374700 5.355300 -2.665308 0.057614 -89.332942 -4.886547 -1.232877 -7.780503 -0.000000 20.569151 -0.000000 0.000000 -0.548973 7.222995 0.000000 -1.384693 -0.000000 1.701497 -1.010073 -1.743301 -0.000000 15.787369 0.000000 0.000000 2.634169 -2.250912 0.000000 -29.541544 -0.000000 -2.299821 1.293831 -0.353511 16.107345 23.943893 -2.403473 4.687727 -0.000000 4.342208 83.029817 1.823021 64.758814 -0.000000 -13.210586 -60.875373 11.515673 1.826716 0.000000 -6.322658 -0.000000 -1.379548 -77.236855 11.979094 -63.844783 0.000001 -20.133840 42.206719 -9.002582 -0.338392 -0.000000 
62.851100 87.397400 5.435800 -2.609864 0.095888 -89.384863 -4.908889 -1.181199 -7.825494 0.000000 20.423233 0.000000 -0.000000 -0.498851 7.311941 0.000000 -1.383591 0.000000 1.673423 -0.920158 -1.796848 0.000000 15.553063 -0.000000 -0.000000 2.709861 -2.138419 -0.000000 -29.541896 0.000000 -2.241837 1.225403 -0.350510 16.198295 24.040531 -2.610238 4.670653 0.000000 4.512993 83.088813 1.529208 64.336274 -0.000000 -13.256379 -60.636065 11.874587 1.842795 0.000000 -6.219071 0.000000 -1.191856 -77.500583 12.095193 -63.532888 0.000000 -20.201839 42.307264 -9.189084 -0.275809 -0.000000 
62.818200 87.402700 5.505300 -2.493389 0.096260 -89.471747 -4.944660 -1.235900 -7.730923 0.000000 20.352037 -0.000000 -0.000000 -0.462925 7.258539 -0.000000 -1.383544 0.000000 1.610936 -1.019777 -1.835189 -0.000000 15.525725 -0.000000 -0.000000 2.739387 -2.025090 -0.000000 -29.542183 -0.000000 -2.196843 1.132418 -0.351620 16.302445 24.256900 -2.691782 4.688293 0.000000 4.656338 83.195718 1.037220 65.349923 0.000000 -12.874479 -61.432477 11.985411 1.811343 0.000000 -6.621935 0.000000 -0.950318 -77.105358 12.099449 -63.927975 -0.000000 -20.347591 42.572322 -9.017897 -0.333659 0.000000 
62.784400 87.408000 5.528000 -2.502579 0.093299 -89.422025 -4.941369 -1.178512 -7.721909 -0.000000 20.292641 -0.000000 0.000000 -0.447822 7.159369 0.000000 -1.384023 -0.000000 1.606964 -0.932231 -1.790353 -0.000000 15.449311 0.000000 -0.000000 2.725477 -2.146963 0.000000 -29.541408 -0.000000 -2.253880 1.055942 -0.325533 16.784755 24.403806 -3.164957 4.679179 -0.000000 4.627608 83.279658 0.785914 65.180636 -0.000002 -12.950381 -61.180235 11.708889 1.821352 -0.000000 -6.675960 0.000000 -0.888606 -77.139676 12.178896 -63.668892 -0.000002 -20.295642 42.877344 -9.124156 -0.297467 -0.000000 
62.735900 87.424500 5.533300 -2.424443 0.076913 -89.323739 -4.935526 -1.114397 -7.754837 -0.000000 20.045303 -0.000000 0.000000 -0.375859 7.100932 0.000000 -1.381772 -0.000000 1.587861 -0.861113 -1.891159 0.000000 15.246433 0.000000 0.000000 2.773651 -2.127371 -0.000000 -29.541660 0.000000 -2.380414 0.867036 -0.264183 17.531413 24.664895 -3.702640 4.745725 -0.000000 4.570487 83.245612 0.592455 64.554737 0.000000 -13.216128 -61.267022 11.578804 1.832455 0.000000 -6.818182 -0.000000 -0.883339 -76.961808 12.282760 -63.545851 -0.000002 -20.344175 43.139407 -9.205463 -0.271188 -0.000000 
62.662000 87.443600 5.520000 -2.316733 0.059799 -89.193941 -4.944899 -0.984546 -7.992146 0.000000 19.671381 -0.000000 -0.000000 -0.315434 7.240201 -0.000000 -1.382741 0.000000 1.596158 -0.759186 -1.875407 -0.000000 14.946523 -0.000000 0.000000 2.840897 -2.228674 -0.000000 -29.541319 -0.000000 -2.510355 0.679956 -0.248003 18.275855 24.820443 -4.227479 4.695592 -0.000000 4.772666 83.486707 -0.028467 64.557977 -0.000000 -13.070805 -61.532234 11.800083 2.028323 0.000000 -6.977751 0.000000 -1.008794 -76.696985 12.208260 -63.519056 -0.000000 -20.520199 43.131146 -8.966570 -0.350529 0.000000 
62.578200 87.465200 5.500700 -2.259990 0.015083 -89.049544 -4.979793 -0.838342 -8.246911 -0.000000 19.372628 0.000000 -0.000000 -0.219715 7.349343 -0.000000 -1.381909 -0.000000 1.581986 -0.686617 -1.888547 -0.000000 14.843005 -0.000000 -0.000000 2.837998 -2.317684 -0.000000 -29.541513 0.000000 -2.723476 0.513855 -0.314029 19.056956 25.139201 -4.400006 4.734754 0.000000 4.703441 83.555619 -0.060514 64.383127 0.000000 -13.255133 -61.310645 11.794132 1.952054 -0.000000 -6.867732 0.000000 -1.082030 -76.785229 12.034848 -63.539529 0.000001 -20.497951 43.074459 -9.035076 -0.327855 -0.000000 
62.518700 87.455600 5.447700 -2.248941 -0.006754 -88.992516 -4.970947 -0.796040 -8.328693 -0.000000 19.345962 -0.000000 0.000000 -0.263699 7.378252 0.000000 -1.381956 0.000000 1.624375 -0.675813 -1.709824 -0.000000 14.899309 0.000000 -0.000000 2.806935 -2.527082 -0.000000 -29.540888 0.000000 -2.907750 0.422614 -0.278850 19.697946 25.285262 -4.575128 4.923219 -0.000000 4.666853 83.544537 -0.187571 64.716991 -0.000000 -13.167260 -61.391292 11.772904 1.836331 -0.000000 -6.815376 0.000000 -1.094063 -76.762070 12.039035 -63.465742 0.000001 -20.572397 43.006098 -9.048497 -0.324461 -0.000000 
62.449000 87.444500 5.391300 -2.315498 -0.017462 -88.956390 -4.953026 -0.807447 -8.283106 0.000000 19.587691 -0.000000 -0.000000 -0.290453 7.305724 -0.000000 -1.385230 0.000000 1.646377 -0.559214 -1.773315 -0.000000 14.886443 0.000000 -0.000000 2.852918 -2.454134 0.000000 -29.541449 -0.000000 -3.031299 0.532312 -0.294859 20.125201 25.300114 -4.685539 5.051635 0.000000 4.834599 83.568847 -0.398588 65.616449 0.000000 -12.961624 -62.043935 11.964482 1.613213 0.000000 -6.770840 0.000000 -1.160593 -76.789251 12.023780 -63.150820 -0.000001 -20.651791 42.617961 -9.150007 -0.290150 -0.000000 
62.388900 87.434500 5.342200 -2.339609 -0.021716 -89.088466 -4.959194 -0.835863 -8.249960 -0.000000 19.786080 -0.000000 0.000000 -0.352722 7.442533 -0.000000 -1.388999 -0.000000 1.675057 -0.539309 -1.590798 -0.000000 14.930754 -0.000000 -0.000000 2.877885 -2.418904 -0.000000 -29.541527 0.000000 -3.074549 0.608366 -0.245386 20.235514 25.281723 -4.642130 4.968011 0.000000 4.979398 83.602879 -0.305204 65.708663 -0.000000 -13.089857 -62.056447 12.053141 1.706152 0.000000 -6.758417 0.000000 -1.123224 -76.837140 11.955778 -63.106405 -0.000001 -20.571823 42.553906 -9.335830 -0.227261 0.000000 
62.352400 87.442000 5.296900 -2.383008 0.008104 -89.246574 -4.927344 -1.032601 -8.017364 -0.000000 20.264158 -0.000000 -0.000000 -0.312399 7.422234 -0.000000 -1.388043 -0.000000 1.721723 -0.525762 -1.460025 -0.000000 14.994891 0.000000 -0.000000 2.959277 -2.336327 -0.000000 -29.541302 -0.000000 -3.021378 0.649162 -0.149408 20.022198 25.351987 -4.478721 4.628982 -0.000000 4.906821 83.795630 0.134630 64.931299 -0.000000 -13.239974 -61.671078 11.980499 1.858553 -0.000000 -6.804494 -0.000000 -1.062801 -76.736984 11.966732 -63.174467 -0.000000 -20.657388 42.685854 -9.263376 -0.252259 -0.000000 
62.334500 87.466700 5.255200 -2.467119 0.068950 -89.354624 -4.893561 -1.200687 -8.012477 -0.000000 20.744073 0.000000 -0.000000 -0.223280 7.496343 -0.000000 -1.389788 -0.000000 1.809298 -0.329245 -1.380324 0.000000 14.758515 -0.000000 -0.000000 3.195964 -2.389021 -0.000000 -29.540789 -0.000000 -2.941232 0.771268 -0.116680 19.750564 25.516378 -4.277518 4.483558 -0.000000 4.876395 83.584578 0.509334 64.532209 0.000001 -13.422321 -61.680354 11.982757 1.762505 -0.000000 -6.745060 -0.000000 -0.948239 -76.704874 11.995762 -63.158720 -0.000000 -20.708831 42.486027 -9.283315 -0.245104 -0.000000 
62.404600 87.478700 5.217600 -2.377166 0.157048 -89.474441 -4.808678 -1.649842 -7.740521 -0.000000 21.330629 0.000000 -0.000000 -0.235877 7.417028 -0.000000 -1.388995 -0.000000 1.900430 -0.375882 -1.371395 -0.000000 14.529315 0.000000 -0.000000 3.387780 -2.312472 -0.000000 -29.541776 0.000000 -2.798266 0.749476 -0.076375 19.357645 25.641753 -4.141080 4.275416 -0.000000 4.860221 83.377215 0.685860 64.638780 -0.000002 -13.450549 -60.808829 11.993080 1.775720 -0.000000 -6.496906 0.000000 -0.779235 -76.867077 12.152957 -63.216347 0.000000 -20.755043 42.635180 -9.135599 -0.296286 -0.000000 
62.521800 87.504900 5.194800 -2.280044 0.213355 -89.543924 -4.740325 -1.907933 -7.624831 -0.000000 21.495388 -0.000000 -0.000000 -0.105770 7.349565 -0.000000 -1.391698 -0.000000 1.952795 -0.404335 -1.429447 -0.000000 14.208978 -0.000000 0.000000 3.635851 -2.155253 0.000000 -29.542056 -0.000000 -2.704304 0.830232 -0.118879 18.960482 25.739636 -3.881397 4.230679 -0.000000 4.508178 82.598614 1.353660 65.315628 0.000002 -13.587826 -61.158172 12.736423 2.103390 -0.000000 -6.042201 0.000000 -0.770262 -77.029930 12.031532 -63.225332 0.000001 -20.895439 42.510582 -9.545643 -0.157557 -0.000000 
62.691000 87.544300 5.201200 -2.174908 0.268912 -89.614779 -4.713209 -2.032522 -7.710905 -0.000000 21.319407 -0.000000 -0.000000 0.084566 7.500358 -0.000000 -1.397735 -0.000000 1.985240 -0.421923 -1.475750 -0.000000 13.739629 -0.000000 -0.000000 4.008140 -1.974652 -0.000000 -29.541865 -0.000000 -2.609066 1.030664 -0.182146 18.588002 25.817966 -3.331533 4.099646 0.000000 4.312693 81.395391 2.014953 65.168584 -0.000000 -13.619767 -61.456932 14.453227 1.909867 -0.000000 -5.247236 -0.000000 -0.674094 -76.954642 12.364969 -62.388557 -0.000000 -21.767096 42.011805 -9.986964 -0.009728 0.000000 
62.953800 87.585400 5.249400 -1.968702 0.291399 -89.631582 -4.754797 -2.332434 -7.944482 -0.000000 21.158945 0.000000 0.000000 0.307438 7.701081 -0.000000 -1.400429 -0.000000 1.969308 -0.620170 -1.466708 -0.000000 13.337969 -0.000000 -0.000000 4.347616 -1.903942 -0.000000 -29.541496 -0.000000 -2.496804 1.283459 -0.372109 18.187717 25.734682 -2.688822 3.372334 0.000000 3.991099 80.067934 2.943865 64.355388 -0.000000 -13.661346 -60.652834 16.389997 2.133612 0.000000 -3.788545 -0.000000 -0.203726 -77.065535 13.314296 -60.972494 0.000000 -22.780815 41.217771 -10.661015 0.215663 0.000000 
63.278600 87.613000 5.314800 -1.710666 0.196207 -89.740581 -4.882725 -2.608134 -7.993277 0.000000 20.783104 -0.000000 -0.000000 0.459196 7.766210 -0.000000 -1.391311 -0.000000 1.798213 -1.106065 -1.571332 0.000000 13.376125 0.000000 -0.000000 4.463612 -1.703329 -0.000000 -29.541291 -0.000000 -2.518470 1.693519 -0.530979 17.768634 25.530314 -1.703791 2.087430 -0.000000 3.835477 78.000113 4.016170 62.338059 -0.000000 -14.342593 -58.735734 19.091509 2.511332 -0.000000 -1.671713 0.000000 -0.165590 -77.175791 13.597155 -58.990962 0.000000 -23.575629 40.371816 -11.395970 0.463352 -0.000000 
63.689600 87.632900 5.410800 -1.373550 0.192768 -89.812993 -4.937545 -3.085359 -8.018604 0.000000 20.529753 -0.000000 0.000000 0.670844 7.768327 0.000000 -1.386308 0.000000 1.709281 -1.729910 -1.587553 -0.000000 13.340251 -0.000000 -0.000000 4.708465 -1.496513 -0.000000 -29.541903 -0.000000 -2.390377 2.162703 -0.729039 17.352124 25.262342 -0.967430 0.299662 0.000000 3.797839 75.291670 4.616538 62.263095 -0.000001 -15.114449 -56.941350 19.287972 1.704570 0.000000 0.682249 -0.000000 -0.179046 -76.619793 13.699746 -57.191045 -0.000000 -24.693684 37.341475 -10.544503 0.171038 -0.000000 
64.163900 87.653200 5.536400 -1.070297 0.215668 -89.915711 -5.005582 -3.679521 -8.063904 -0.000000 20.492250 0.000000 -0.000000 0.860929 7.819525 -0.000000 -1.385684 -0.000000 1.645903 -2.267019 -1.507217 0.000000 13.147774 -0.000000 0.000000 5.132533 -1.454679 -0.000000 -29.541988 -0.000000 -2.213554 2.768616 -0.935718 16.878762 24.933013 -0.396364 -1.928991 0.000000 4.492307 72.128794 3.666359 62.686621 -0.000000 -15.044761 -54.063248 19.661631 1.049535 -0.000000 3.733222 0.000000 -0.348464 -75.860569 13.360774 -55.326803 -0.000000 -25.956884 34.485763 -9.030995 -0.340466 -0.000000 
